<svg id="bold" height="512" viewBox="0 0 24 24" width="512" xmlns="http://www.w3.org/2000/svg"><path d="m20.25 10h-5.099l-2.887-4.326c-.699-1.049-1.867-1.674-3.124-1.674h-1.39c-.249 0-.481.124-.621.33s-.168.467-.075.698l1.988 4.972h-4.172l-1.408-4.475c-.098-.313-.388-.525-.715-.525h-1.468c-.705 0-1.279.574-1.279 1.279v4.971c0 2.068 1.682 3.75 3.75 3.75h5.292l-1.989 4.972c-.092.231-.064.493.075.699s.373.329.622.329h1.395c1.256 0 2.422-.624 3.12-1.67l2.886-4.33h7.599c.689 0 1.25-.561 1.25-1.25 0-2.068-1.682-3.75-3.75-3.75z"/></svg>